<?xml version="1.0" encoding="UTF-8" ?>
<!DOCTYPE svg PUBLIC "-//W3C//DTD SVG 1.1//EN" "http://www.w3.org/Graphics/SVG/1.1/DTD/svg11.dtd">
<svg width="100pt" height="100pt" viewBox="0 0 100 100" version="1.1" xmlns="http://www.w3.org/2000/svg">
<path fill="#ffffff" d=" M 0.00 0.00 L 100.00 0.00 L 100.00 100.00 L 0.00 100.00 L 0.00 0.00 Z" />
<path fill="#CCCCCC" d=" M 9.96 19.12 C 16.16 9.83 27.67 6.23 38.20 4.75 C 51.48 3.25 65.53 3.68 77.92 9.16 C 82.76 11.32 87.14 14.63 90.04 19.12 C 89.92 39.10 87.12 60.03 76.18 77.20 C 70.03 86.66 61.07 94.99 49.99 98.01 C 38.61 95.00 29.46 86.38 23.29 76.62 C 12.73 59.51 10.06 38.87 9.96 19.12 Z" />
<path fill="#ffffff" d=" M 38.54 8.75 C 50.60 7.31 63.28 7.66 74.70 12.16 C 79.03 13.98 83.26 16.47 86.08 20.33 C 85.56 39.08 83.18 58.71 72.89 74.87 C 67.44 83.26 59.73 91.02 49.88 93.81 C 41.00 91.39 34.04 84.55 28.65 77.37 C 17.00 60.85 14.46 40.02 13.92 20.33 C 19.83 12.95 29.52 10.05 38.54 8.75 Z" />
<path fill="#CCCCCC" d=" M 25.90 44.64 C 31.17 40.25 37.61 37.50 44.27 35.99 C 43.57 40.48 42.08 45.71 37.58 47.79 C 33.43 48.95 29.45 46.48 25.90 44.64 Z" />
<path fill="#CCCCCC" d=" M 55.74 35.97 C 62.30 37.78 68.89 40.12 74.10 44.65 C 70.55 46.47 66.57 48.95 62.42 47.79 C 57.94 45.71 56.38 40.49 55.74 35.97 Z" />
<path fill="#CCCCCC" d=" M 31.54 70.01 C 38.47 61.35 51.74 60.13 61.44 64.48 C 64.09 66.01 67.56 67.44 68.31 70.74 C 67.72 71.18 66.56 72.07 65.97 72.51 C 58.96 65.09 46.71 64.01 38.12 69.19 C 36.42 70.02 35.24 72.50 33.16 72.09 C 32.75 71.57 31.94 70.53 31.54 70.01 Z" />
</svg>
